<svg xmlns="http://www.w3.org/2000/svg" version="1.1" x="0px" y="0px" width="179.616px" height="28.948px" viewBox="0 0 179.616 28.948" enable-background="new 0 0 179.616 28.948" xml:space="preserve">
	<g>
		<circle fill="#FFD47D" cx="98.855" cy="14.43" r="10.647"/>
		<ellipse fill="#FFFFFF" cx="96.638" cy="13.185" rx="1.625" ry="1.679"/>
		<path fill="#FFA749" d="M109.595,14.43c-6.913-4.609-13.298-7.307-21.293,0c0-3.98,4.768-10.646,10.648-10.646
			C104.828,3.783,109.595,9.552,109.595,14.43z"/>
	</g>
	<path fill="#003CA4" d="M98.95,2.211c-6.751,0-12.221,5.469-12.221,12.219c0,6.746,5.47,12.221,12.221,12.221
		c6.748,0,12.219-5.475,12.219-12.221C111.169,7.68,105.698,2.211,98.95,2.211z M108.177,14.43c0,5.097-4.131,9.229-9.227,9.229
		c-5.099,0-9.23-4.132-9.23-9.229c0-0.146,0.005-0.29,0.01-0.434c1.913-1.377,4.136-2.329,6.544-2.717
		c-1.747,0.948-2.934,2.8-2.934,4.926c0,3.098,2.513,5.609,5.61,5.609c3.095,0,5.606-2.512,5.606-5.609
		c0-2.035-1.091-3.815-2.717-4.797c2.346,0.492,4.5,1.52,6.336,2.958C108.176,14.388,108.177,14.408,108.177,14.43z M96.551,11.75
		c0.779,0,1.412,0.63,1.412,1.41c0,0.781-0.633,1.415-1.412,1.415c-0.781,0-1.413-0.634-1.413-1.415
		C95.138,12.38,95.77,11.75,96.551,11.75z M98.707,7.909c-3.542,0-6.695,1.708-8.731,4.356c0.977-4.053,4.622-7.064,8.975-7.064
		c4.684,0,8.553,3.494,9.146,8.019C106.125,10.029,102.66,7.909,98.707,7.909z M13.146,15.665c-0.204,0.102-1.634,1.847-3.621,1.674
		c-1.987-0.175-2.951-1.142-3.472-3.123l7.84-1.071c0.287-0.224,0.472-0.529,0.472-0.947c0.002-1.883-1.116-4.968-5.32-5.087
		c-3.144-0.033-6.692,1.936-6.689,6.871c0.006,4.936,3.567,6.922,6.629,6.935c1.387,0.001,2.885-0.522,3.858-1.395
		c1.172-1.054,1.679-2.525,1.618-3.115C14.35,15.327,13.348,15.563,13.146,15.665z M7.734,9.488c1.401-0.3,2.238,0.789,2.419,2.255
		c-0.194,0.025-3.526,0.453-4.324,0.555C5.978,10.836,6.331,9.785,7.734,9.488z M71.156,15.665
		c-0.202,0.102-1.633,1.847-3.619,1.674c-1.988-0.175-2.952-1.142-3.473-3.123l7.841-1.071c0.287-0.224,0.471-0.529,0.471-0.947
		c0.003-1.883-1.116-4.968-5.319-5.087c-3.144-0.033-6.692,1.936-6.688,6.871s3.565,6.922,6.627,6.935
		c1.388,0.001,2.886-0.522,3.858-1.395c1.172-1.054,1.68-2.525,1.618-3.115C72.36,15.327,71.359,15.563,71.156,15.665z
		 M65.746,9.488c1.402-0.3,2.238,0.789,2.418,2.255c-0.192,0.025-3.525,0.453-4.324,0.555C63.989,10.836,64.343,9.785,65.746,9.488z
		 M35.529,11.322c0,4.384,0,8.87,0,8.87l0,0c-0.004,0.218-0.184,0.399-0.405,0.399h-3.642c-0.223,0-0.401-0.182-0.403-0.399h-0.002
		v-9.244c0-0.801-0.756-1.447-1.686-1.447c-0.933,0-1.688,0.646-1.688,1.447v9.244h-0.002c-0.002,0.218-0.183,0.399-0.404,0.399
		h-3.643c-0.223,0-0.404-0.183-0.404-0.405c0-0.01,0.003-0.015,0.003-0.021v-9.218c0-0.801-0.757-1.447-1.688-1.447
		c-0.932,0-1.687,0.646-1.687,1.447v9.238h-0.005c0,0.223-0.181,0.405-0.404,0.405h-3.604c-0.224,0-0.405-0.183-0.405-0.405
		c0,0,0-8.078,0-10.721c0-1.229,1.839-1.772,3.453-2.146c1.615-0.371,5.08-0.408,6.792,1.228c1.205-1.288,5.686-1.855,7.548-0.969
		C35.114,8.466,35.529,9.686,35.529,11.322z M47.568,8.503c-0.052-0.046-0.104-0.091-0.157-0.137
		c-0.022-0.017-0.045-0.036-0.068-0.054c-0.254-0.198-0.525-0.354-0.809-0.461c-1.019-0.456-2.467-0.741-4.08-0.741
		c-3.08,0-5.577,1.037-5.577,2.312v7.518h-0.004v9.243c0.004,0.22,0.183,0.397,0.404,0.397h3.56c0.22,0,0.402-0.178,0.404-0.397l0,0
		c0,0,0-2.526,0-5.64c0.677,0.279,1.454,0.44,2.28,0.44c1.676,0,3.145-0.656,3.986-1.638c1.179-1.077,1.985-3.066,2.017-5.353
		c0.033-2.324-0.744-4.36-1.925-5.461C47.589,8.522,47.578,8.513,47.568,8.503z M45.052,14.109c0,1.284-0.224,2.419-0.567,3.129
		c-0.013,0.026-0.024,0.051-0.037,0.076c-0.007,0.013-0.014,0.025-0.021,0.042c-0.041,0.079-0.086,0.157-0.138,0.233
		c-0.448,0.652-1.162,0.978-1.775,0.876c-0.378-0.025-0.816-0.132-1.271-0.313c0-0.281,0-0.56,0-0.843h-0.005v-1.559
		c0.003,0,0.003,0,0.005,0v-5.26c0-0.559,0.452-1.01,1.013-1.01c0.292,0,1.288,0.066,2.073,1.339
		C45.11,12.095,45.052,13.174,45.052,14.109z M60.626,9.362c0,2.118-2.615,2.025-3.064,0.815c-0.449-1.208-1.209-1.096-1.503-1.096
		c-0.56,0-1.012,0.45-1.012,1.013l-0.005,1.151h0.005c0,0.28,0,0.563,0,0.844v2.389c0,3.115,0,5.638,0,5.638l0,0
		c-0.002,0.221-0.183,0.399-0.404,0.399h-3.559c-0.223,0-0.402-0.179-0.405-0.399v-9.24h0.005V9.024
		c0-1.277,2.497-1.914,5.576-1.914C57.873,7.11,60.626,7.248,60.626,9.362z M86.297,19.386c0,0-0.015-0.016-0.04-0.042
		c-0.279-0.315-0.624-0.571-1.017-0.744c-0.518-0.284-1.226-0.556-2.121-0.651c-2.113-0.224-4.587-0.203-4.587-0.203
		s-1.199,0.003-1.408-0.587c-0.116-0.321,0.15-0.761,0.434-1.102c0.391,0.056,0.806,0.091,1.252,0.092
		c3.802,0.02,5.719-1.858,5.789-4.348c0.022-0.771-0.17-1.494-0.551-2.128c0.604-0.152,2.489-0.634,2.533-0.732
		c0.053-0.109-0.302-1.423-0.502-1.434c-0.2-0.016-1.438,0.342-2.808,0.342c-0.559,0-1.629-0.451-2.509-0.595
		c-1.276-0.208-2.329-0.131-2.329-0.131c-3.098,0.065-5.091,2.024-5.155,4.361c-0.05,1.682,0.764,3.212,2.47,4.034
		c-0.422,0.324-1.138,0.903-1.68,1.486c-0.597,0.639-0.744,1.36-0.781,1.71c-0.001,0.012-0.002,0.021-0.004,0.031
		c-0.01,0.115-0.008,0.182-0.008,0.182c0,0.983,0.849,1.684,1.7,1.892c-1.574,0.956-2.451,2.139-2.166,3.415
		c0.192,0.776,0.7,1.405,1.653,1.808c2.23,0.947,6.073,0.871,8.026,0.112c2.924-1.086,4.356-2.943,4.49-4.566
		c0.001-0.002,0.001-0.008,0.003-0.015c0.006-0.083,0.012-0.169,0.012-0.252c0-0.013,0.003-0.023,0.003-0.034
		c0-0.726-0.266-1.391-0.702-1.901H86.297z M78.327,9.207c0.92-0.269,1.958,0.52,2.316,1.76c0.359,1.238-0.098,2.458-1.019,2.725
		c-0.92,0.269-1.958-0.521-2.317-1.76C76.95,10.693,77.406,9.472,78.327,9.207z M82.848,23.028c-0.3,0.726-1.644,1.277-3.258,1.277
		c-1.605,0-2.942-0.546-3.254-1.267h-0.001c0-0.002-0.007-0.017-0.013-0.041c-0.012-0.027-0.024-0.056-0.03-0.085
		c-0.018-0.063-0.025-0.128-0.025-0.194c0-0.001,0.002-0.006,0.002-0.009c-0.014-0.149-0.004-0.333,0.066-0.518
		c0.163-0.423,0.613-0.819,0.613-0.819s0.471,0.031,1.19,0.063c0.49,0.024,2.137,0.039,3.075,0.084c0.013,0,0.025,0.002,0.037,0.002
		c0.167,0.004,0.328,0.024,0.48,0.059c0.074,0.016,0.117,0.025,0.129,0.028c0.629,0.177,1.071,0.588,1.071,1.066
		C82.932,22.799,82.901,22.915,82.848,23.028z M122.563,16.122c0.031,0.218,0.05,0.446,0.05,0.682c0,0.227-0.018,0.442-0.046,0.649
		c-0.043,1.327-1.34,3.508-5.442,3.508c-3.385,0-5.202-1.52-5.202-3.58c0-0.087,0.017-0.822,0.885-1.201
		c0.868-0.381,1.916,0.025,2.336,0.556c0.843,1.052,1.457,1.864,2.182,1.864c0.724,0,1.388-0.538,1.303-1.481
		c-0.02-0.23-0.257-0.7-0.741-1.02c-0.851-0.564-2.263-1.04-3.242-1.529h-0.004c0,0-0.344-0.161-0.759-0.455
		c-0.001,0-0.002,0-0.004,0c-0.287-0.199-0.609-0.463-0.877-0.778c-0.518-0.606-0.742-1.539-0.75-1.739
		c-0.029-0.204-0.048-0.416-0.048-0.635c0-0.208,0.016-0.405,0.043-0.6c0.042-1.231,1.265-3.252,5.142-3.252
		c3.195,0,4.776,1.183,4.776,3.092c0,0.084-0.037,0.831-0.857,1.186c-0.82,0.352-1.653,0.13-2.051-0.358
		c-0.794-0.978-1.121-1.907-2.04-1.857c-0.917,0.05-1.329,0.625-1.25,1.501c0.021,0.213,0.242,0.649,0.701,0.948
		c0.822,0.534,2.351,1.006,3.277,1.474c0.327,0.166,0.563,0.297,0.723,0.388c0.037,0.021,0.075,0.042,0.11,0.063
		c0.1,0.06,0.147,0.093,0.147,0.093l0,0c0.341,0.222,0.64,0.471,0.883,0.743c0.1,0.099,0.192,0.219,0.276,0.352
		C122.375,15.158,122.545,15.629,122.563,16.122z M156.877,14.81c0,2.91,0,5.885,0,5.885h-0.001c0,0.146-0.12,0.267-0.269,0.267
		h-0.021h-1.878c-0.151,0-0.269-0.122-0.269-0.271c0-0.004,0-0.006,0-0.013v-6.161c0-0.53-0.451-1.301-1.42-1.301
		c-0.965,0-1.352,0.58-1.352,1.11v6.364h-0.004c0,0.149-0.118,0.271-0.268,0.271h-1.858h-0.005c-0.146,0-0.269-0.122-0.269-0.271
		c0-0.004,0.004-0.006,0.004-0.013v-6.161c0-0.53-0.451-1.301-1.42-1.301c-0.966,0-1.351,0.58-1.351,1.11v6.364h-0.005
		c0,0.149-0.121,0.271-0.269,0.271h-1.857c-0.15,0-0.269-0.122-0.269-0.271c0,0,0-5.36,0-7.109c0-0.816,0.95-1.177,2.023-1.425
		c1.071-0.248,3.37-0.27,4.507,0.813c0.8-0.854,3.773-1.229,5.008-0.64C156.871,12.915,156.877,13.725,156.877,14.81z
		 M160.965,19.656c0,0.721-0.612,1.305-1.36,1.305c-0.754,0-1.36-0.584-1.36-1.305c0-0.719,0.606-1.305,1.36-1.305
		C160.353,18.352,160.965,18.938,160.965,19.656z M125.976,19.656c0,0.721-0.608,1.305-1.36,1.305c-0.75,0-1.359-0.584-1.359-1.305
		c0-0.719,0.609-1.305,1.359-1.305C125.367,18.352,125.976,18.938,125.976,19.656z M168.469,12.215
		c-1.841-1.073-3.876,0.299-4.105,0.574c0-2.089,0-4.621,0-4.621l0,0c-0.003-0.147-0.125-0.27-0.272-0.27h-1.728
		c-0.151,0-0.271,0.122-0.271,0.27v6.198h0.003v5.04c0,0.856,1.674,1.555,3.739,1.555c0.565,0,2.106-0.35,3.07-1.408
		c0.883-0.974,1.216-2.629,1.207-3.374C170.101,15.523,170.311,13.283,168.469,12.215z M167.226,18.671
		c-0.73,0.888-0.913,0.936-1.658,0.936s-1.215-0.719-1.215-1.109v-3.263c-0.003,0-0.003,0-0.005,0v-0.711l0.005-0.376
		c0-0.197,0-0.015,0-0.211c0.432-0.365,0.833-0.576,1.184-0.593c0.569-0.073,1.236,0.155,1.654,0.608
		c0.046,0.055,0.09,0.109,0.127,0.162c0.008,0.013,0.016,0.021,0.024,0.033c0.01,0.016,0.021,0.032,0.032,0.052
		c0.319,0.492,0.527,1.285,0.527,2.179C167.901,17.035,167.957,17.782,167.226,18.671z M177.261,13.309
		c0,1.408-1.583,1.083-1.883,0.277s-1.856-0.706-1.856,0.441l-0.004,0.766h0.004c0,0.187,0,0.375,0,0.561v1.588
		c0,2.073,0,3.752,0,3.752l0,0c-0.002,0.147-0.123,0.268-0.27,0.268h-1.827c-0.149,0-0.268-0.12-0.271-0.268v-6.148h0.004v-1.229
		c0-0.853,1.662-1.276,3.709-1.276C175.941,12.04,177.261,11.9,177.261,13.309z M138.661,11.715c-2.452,0-4.441,1.851-4.441,4.621
		s1.989,4.625,4.441,4.625c2.455,0,4.443-1.717,4.443-4.625C143.104,13.433,141.116,11.715,138.661,11.715z M138.859,19.574
		c-1.143,0.055-2.141-1.38-2.228-3.202c-0.087-1.827,0.767-3.348,1.908-3.405c1.146-0.052,2.14,1.382,2.228,3.205
		C140.855,17.996,140.002,19.518,138.859,19.574z M133.62,18.645c-0.305,1.292-1.858,2.316-3.288,2.316
		c-0.944,0-1.903-0.246-2.586-0.875c-0.911-0.831-1.397-2.239-1.397-3.678c0-1.168,0.385-2.229,1.019-3.039l0,0
		c0,0,0.006-0.005,0.01-0.011c0.64-0.812,1.532-1.354,2.533-1.477c-0.011,0.01-0.02,0.019-0.031,0.029
		c0.331-0.056,0.689-0.076,1.072-0.03c2.199,0.26,3.063,1.643,2.54,2.604c-0.155,0.285-0.766,0.695-1.277,0.363
		c-0.51-0.334-0.798-1.398-1.4-1.62c-0.35-0.128-0.991-0.113-1.392,0.131c-0.376,0.226-0.614,0.586-0.729,0.789
		c-0.264,0.479-0.427,1.099-0.427,1.778c0,0.149,0.012,0.293,0.025,0.435c0.076,1.527,1.138,2.739,2.44,2.739
		c1.523,0,2.022-1.462,2.289-1.586C133.289,17.391,133.924,17.356,133.62,18.645z"/>
</svg>
